<svg width="144" height="144" viewBox="0 0 144 144" xmlns="http://www.w3.org/2000/svg">
  <!-- 圆形背景 -->
  <circle cx="72" cy="72" r="72" fill="#9E9E9E"/>
  
  <!-- 奖杯底座 -->
  <rect x="60" y="90" width="24" height="8" rx="2" fill="#757575"/>
  <rect x="66" y="86" width="12" height="8" fill="#757575"/>
  
  <!-- 奖杯主体 -->
  <path d="M 54 50 Q 54 45 60 45 L 84 45 Q 90 45 90 50 L 90 70 Q 90 80 80 85 L 64 85 Q 54 80 54 70 Z" fill="#757575"/>
  
  <!-- 奖杯手柄 -->
  <path d="M 90 55 Q 96 55 96 62 Q 96 69 90 69" fill="none" stroke="#757575" stroke-width="3"/>
  <path d="M 54 55 Q 48 55 48 62 Q 48 69 54 69" fill="none" stroke="#757575" stroke-width="3"/>
  
  <!-- 装饰星星 -->
  <path d="M 72 38 L 74 44 L 80 44 L 75 48 L 77 54 L 72 50 L 67 54 L 69 48 L 64 44 L 70 44 Z" fill="#BDBDBD"/>
  <path d="M 58 32 L 59 35 L 62 35 L 60 37 L 61 40 L 58 38 L 55 40 L 56 37 L 54 35 L 57 35 Z" fill="#BDBDBD"/>
  <path d="M 86 32 L 87 35 L 90 35 L 88 37 L 89 40 L 86 38 L 83 40 L 84 37 L 82 35 L 85 35 Z" fill="#BDBDBD"/>
</svg>