<svg width="144" height="144" viewBox="0 0 144 144" fill="none" xmlns="http://www.w3.org/2000/svg">
  <!-- 背景圆形 -->
  <circle cx="72" cy="72" r="72" fill="#2196F3"/>
  
  <!-- 任务清单图标 -->
  <g transform="translate(36, 28)">
    <!-- 清单背景 -->
    <rect x="8" y="8" width="56" height="72" rx="6" fill="white"/>
    
    <!-- 清单顶部夹子 -->
    <rect x="28" y="0" width="16" height="12" rx="2" fill="#666"/>
    
    <!-- 任务项目 -->
    <!-- 第一项 (已完成) -->
    <circle cx="18" cy="24" r="3" fill="#4CAF50"/>
    <path d="M16 24 L18 26 L22 22" stroke="white" stroke-width="1.5" stroke-linecap="round" stroke-linejoin="round" fill="none"/>
    <rect x="28" y="22" width="28" height="2" rx="1" fill="#333"/>
    
    <!-- 第二项 (已完成) -->
    <circle cx="18" cy="36" r="3" fill="#4CAF50"/>
    <path d="M16 36 L18 38 L22 34" stroke="white" stroke-width="1.5" stroke-linecap="round" stroke-linejoin="round" fill="none"/>
    <rect x="28" y="34" width="24" height="2" rx="1" fill="#333"/>
    
    <!-- 第三项 (进行中) -->
    <circle cx="18" cy="48" r="3" fill="#FF9800"/>
    <rect x="28" y="46" width="32" height="2" rx="1" fill="#333"/>
    
    <!-- 第四项 (待办) -->
    <circle cx="18" cy="60" r="3" fill="#E0E0E0"/>
    <rect x="28" y="58" width="20" height="2" rx="1" fill="#333"/>
  </g>
</svg>